<mxfile host="app.diagrams.net" agent="Mozilla/5.0 (Windows NT 10.0; Win64; x64; rv:140.0) Gecko/20100101 Firefox/140.0" version="28.0.4">
  <diagram name="Page-1" id="frktdbF0pmUJlZ-HHJzW">
    <mxGraphModel dx="1426" dy="787" grid="1" gridSize="10" guides="1" tooltips="1" connect="1" arrows="1" fold="1" page="1" pageScale="1" pageWidth="827" pageHeight="1169" math="0" shadow="0">
      <root>
        <mxCell id="0" />
        <mxCell id="1" parent="0" />
        <mxCell id="odlR2qxA35yBrL1_Eb9--1" value="&lt;div&gt;Admin&lt;/div&gt;" style="swimlane;childLayout=stackLayout;horizontal=1;startSize=50;horizontalStack=0;rounded=1;fontSize=14;fontStyle=0;strokeWidth=2;resizeParent=0;resizeLast=1;shadow=0;dashed=0;align=center;arcSize=4;whiteSpace=wrap;html=1;" vertex="1" parent="1">
          <mxGeometry x="60" y="200" width="160" height="120" as="geometry" />
        </mxCell>
        <mxCell id="odlR2qxA35yBrL1_Eb9--2" value="+id_admin (PK)&lt;br&gt;+email&lt;br&gt;+password" style="align=left;strokeColor=none;fillColor=none;spacingLeft=4;spacingRight=4;fontSize=12;verticalAlign=top;resizable=0;rotatable=0;part=1;html=1;whiteSpace=wrap;" vertex="1" parent="odlR2qxA35yBrL1_Eb9--1">
          <mxGeometry y="50" width="160" height="70" as="geometry" />
        </mxCell>
        <mxCell id="odlR2qxA35yBrL1_Eb9--3" value="Collection" style="swimlane;childLayout=stackLayout;horizontal=1;startSize=50;horizontalStack=0;rounded=1;fontSize=14;fontStyle=0;strokeWidth=2;resizeParent=0;resizeLast=1;shadow=0;dashed=0;align=center;arcSize=4;whiteSpace=wrap;html=1;" vertex="1" parent="1">
          <mxGeometry x="280" y="90" width="160" height="120" as="geometry" />
        </mxCell>
        <mxCell id="odlR2qxA35yBrL1_Eb9--4" value="+id_collection (PK)&lt;br&gt;+description&lt;br&gt;+nom" style="align=left;strokeColor=none;fillColor=none;spacingLeft=4;spacingRight=4;fontSize=12;verticalAlign=top;resizable=0;rotatable=0;part=1;html=1;whiteSpace=wrap;" vertex="1" parent="odlR2qxA35yBrL1_Eb9--3">
          <mxGeometry y="50" width="160" height="70" as="geometry" />
        </mxCell>
        <mxCell id="odlR2qxA35yBrL1_Eb9--5" value="photo_collection" style="swimlane;childLayout=stackLayout;horizontal=1;startSize=50;horizontalStack=0;rounded=1;fontSize=14;fontStyle=0;strokeWidth=2;resizeParent=0;resizeLast=1;shadow=0;dashed=0;align=center;arcSize=4;whiteSpace=wrap;html=1;" vertex="1" parent="1">
          <mxGeometry x="610" y="90" width="160" height="120" as="geometry" />
        </mxCell>
        <mxCell id="odlR2qxA35yBrL1_Eb9--6" value="+id_photo (PK)&lt;br&gt;&lt;div&gt;+url&lt;/div&gt;&lt;div&gt;+légende&lt;/div&gt;+id_collection (FK)" style="align=left;strokeColor=none;fillColor=none;spacingLeft=4;spacingRight=4;fontSize=12;verticalAlign=top;resizable=0;rotatable=0;part=1;html=1;whiteSpace=wrap;" vertex="1" parent="odlR2qxA35yBrL1_Eb9--5">
          <mxGeometry y="50" width="160" height="70" as="geometry" />
        </mxCell>
        <mxCell id="odlR2qxA35yBrL1_Eb9--7" value="Témoignage" style="swimlane;childLayout=stackLayout;horizontal=1;startSize=50;horizontalStack=0;rounded=1;fontSize=14;fontStyle=0;strokeWidth=2;resizeParent=0;resizeLast=1;shadow=0;dashed=0;align=center;arcSize=4;whiteSpace=wrap;html=1;" vertex="1" parent="1">
          <mxGeometry x="280" y="260" width="160" height="120" as="geometry" />
        </mxCell>
        <mxCell id="odlR2qxA35yBrL1_Eb9--8" value="+id_temoignage (PK)&lt;br&gt;+text&lt;div&gt;+titre&lt;/div&gt;&lt;div&gt;+date_publication&lt;/div&gt;" style="align=left;strokeColor=none;fillColor=none;spacingLeft=4;spacingRight=4;fontSize=12;verticalAlign=top;resizable=0;rotatable=0;part=1;html=1;whiteSpace=wrap;" vertex="1" parent="odlR2qxA35yBrL1_Eb9--7">
          <mxGeometry y="50" width="160" height="70" as="geometry" />
        </mxCell>
        <mxCell id="odlR2qxA35yBrL1_Eb9--9" value="photo_témoignage" style="swimlane;childLayout=stackLayout;horizontal=1;startSize=50;horizontalStack=0;rounded=1;fontSize=14;fontStyle=0;strokeWidth=2;resizeParent=0;resizeLast=1;shadow=0;dashed=0;align=center;arcSize=4;whiteSpace=wrap;html=1;" vertex="1" parent="1">
          <mxGeometry x="610" y="270" width="160" height="120" as="geometry" />
        </mxCell>
        <mxCell id="odlR2qxA35yBrL1_Eb9--10" value="+id_photo (PK)&lt;br&gt;&lt;div&gt;+url&lt;/div&gt;&lt;div&gt;+légende&lt;/div&gt;+id_temoignage (FK)" style="align=left;strokeColor=none;fillColor=none;spacingLeft=4;spacingRight=4;fontSize=12;verticalAlign=top;resizable=0;rotatable=0;part=1;html=1;whiteSpace=wrap;" vertex="1" parent="odlR2qxA35yBrL1_Eb9--9">
          <mxGeometry y="50" width="160" height="70" as="geometry" />
        </mxCell>
        <mxCell id="odlR2qxA35yBrL1_Eb9--13" value="" style="edgeStyle=entityRelationEdgeStyle;fontSize=12;html=1;endArrow=ERoneToMany;rounded=0;entryX=-0.019;entryY=0.425;entryDx=0;entryDy=0;entryPerimeter=0;exitX=1;exitY=0.5;exitDx=0;exitDy=0;fillColor=#ffe6cc;strokeColor=#d79b00;" edge="1" parent="1" source="odlR2qxA35yBrL1_Eb9--7" target="odlR2qxA35yBrL1_Eb9--9">
          <mxGeometry width="100" height="100" relative="1" as="geometry">
            <mxPoint x="579.04" y="370" as="sourcePoint" />
            <mxPoint x="440.00000000000006" y="370.01" as="targetPoint" />
            <Array as="points">
              <mxPoint x="519.04" y="420" />
            </Array>
          </mxGeometry>
        </mxCell>
        <mxCell id="odlR2qxA35yBrL1_Eb9--14" value="" style="edgeStyle=entityRelationEdgeStyle;fontSize=12;html=1;endArrow=ERoneToMany;rounded=0;entryX=0;entryY=0.25;entryDx=0;entryDy=0;fillColor=#ffe6cc;strokeColor=#d79b00;exitX=1;exitY=0.25;exitDx=0;exitDy=0;" edge="1" parent="1" source="odlR2qxA35yBrL1_Eb9--4" target="odlR2qxA35yBrL1_Eb9--6">
          <mxGeometry width="100" height="100" relative="1" as="geometry">
            <mxPoint x="470" y="210" as="sourcePoint" />
            <mxPoint x="444" y="220" as="targetPoint" />
          </mxGeometry>
        </mxCell>
      </root>
    </mxGraphModel>
  </diagram>
</mxfile>
